<?xml version="1.0" standalone="no"?>
<!DOCTYPE svg PUBLIC "-//W3C//DTD SVG 20010904//EN"
 "http://www.w3.org/TR/2001/REC-SVG-20010904/DTD/svg10.dtd">
<svg version="1.0" xmlns="http://www.w3.org/2000/svg"
 width="854.000000pt" height="854.000000pt" viewBox="0 0 854.000000 854.000000"
 preserveAspectRatio="xMidYMid meet">
<metadata>
Created by potrace 1.14, written by Peter Selinger 2001-2017
</metadata>
<g transform="translate(0.000000,854.000000) scale(0.100000,-0.100000)"
fill="#000000" stroke="none">
<path d="M4216 7774 c-3 -9 -3 -21 1 -26 3 -7 1 -8 -5 -4 -7 4 -12 2 -12 -4 0
-6 -5 -8 -12 -4 -6 4 -8 3 -4 -4 3 -6 0 -16 -7 -24 -8 -7 -12 -19 -9 -26 2 -6
-1 -12 -7 -12 -6 0 -11 -9 -11 -21 0 -13 -5 -19 -13 -16 -9 3 -13 -3 -13 -17
1 -11 -4 -20 -11 -19 -7 2 -10 -3 -7 -11 3 -7 -2 -20 -10 -29 -9 -9 -16 -20
-16 -26 0 -6 -4 -11 -10 -11 -5 0 -10 -11 -10 -25 0 -19 -4 -23 -17 -18 -10 4
-14 2 -10 -4 4 -5 0 -19 -8 -29 -8 -10 -15 -26 -15 -36 0 -9 -6 -18 -12 -20
-7 -3 -13 -13 -13 -24 0 -10 -6 -18 -13 -16 -8 1 -11 -2 -7 -8 3 -5 1 -10 -5
-10 -6 0 -8 -4 -5 -10 3 -5 2 -10 -3 -10 -6 0 -12 -10 -16 -23 -3 -13 -15 -34
-26 -47 -12 -14 -19 -32 -17 -41 3 -12 0 -16 -9 -12 -9 3 -14 -2 -14 -16 0
-12 -6 -24 -14 -27 -8 -3 -13 -11 -10 -18 2 -6 -7 -23 -21 -36 -14 -13 -25
-32 -25 -42 0 -11 -4 -16 -10 -13 -6 4 -10 -5 -10 -20 0 -15 -4 -24 -10 -20
-10 6 -14 -7 -11 -32 1 -6 -8 -18 -19 -26 -11 -7 -17 -17 -13 -20 3 -4 1 -7
-6 -7 -7 0 -10 -4 -7 -9 3 -5 -1 -12 -10 -15 -9 -4 -14 -13 -10 -21 3 -9 0
-15 -10 -15 -8 0 -13 -4 -9 -9 3 -5 0 -13 -6 -16 -5 -4 -8 -14 -5 -22 5 -11 2
-13 -9 -9 -9 3 -13 2 -10 -4 3 -6 2 -10 -4 -10 -6 0 -7 -7 -4 -17 5 -12 3 -14
-7 -8 -10 6 -12 4 -7 -8 3 -10 3 -17 -1 -17 -13 0 -42 -57 -34 -65 4 -5 1 -5
-5 -1 -12 6 -18 -11 -14 -36 0 -5 -5 -7 -12 -5 -6 1 -11 -4 -10 -10 2 -7 -2
-13 -8 -13 -5 0 -8 -4 -4 -9 3 -6 -3 -14 -12 -20 -10 -6 -12 -11 -5 -11 7 0 4
-8 -8 -20 -12 -12 -18 -26 -14 -32 4 -7 3 -8 -4 -4 -7 4 -12 1 -12 -8 0 -9 -4
-16 -10 -16 -5 0 -10 -12 -10 -27 0 -20 -3 -24 -9 -14 -7 10 -11 6 -15 -17 -4
-16 -16 -38 -27 -48 -10 -9 -19 -28 -19 -41 0 -14 -4 -21 -10 -18 -5 3 -10 -1
-10 -9 0 -9 -5 -16 -11 -16 -5 0 -7 -4 -4 -10 3 -5 2 -10 -3 -10 -5 0 -15 -12
-22 -27 -8 -16 -21 -37 -30 -48 -14 -19 -14 -19 5 -5 19 15 19 15 0 -11 -11
-15 -23 -25 -27 -23 -3 2 -4 -6 0 -18 4 -19 3 -21 -9 -11 -11 9 -14 6 -16 -15
0 -15 -6 -28 -12 -30 -6 -2 -9 -8 -6 -12 3 -5 -5 -16 -17 -24 -14 -10 -17 -16
-8 -16 9 0 7 -7 -8 -20 -12 -12 -22 -31 -22 -43 0 -18 -2 -19 -10 -7 -8 12
-10 10 -11 -10 -1 -14 -2 -31 -2 -38 1 -9 -3 -10 -12 -2 -11 9 -13 6 -11 -14
2 -18 -1 -23 -13 -19 -9 4 -13 2 -8 -2 4 -5 1 -15 -7 -24 -14 -16 -16 -20 -16
-42 0 -5 -5 -7 -10 -4 -6 4 -10 3 -9 -2 4 -23 -2 -43 -13 -41 -8 2 -13 -6 -12
-19 1 -13 -4 -23 -12 -23 -9 0 -14 -11 -14 -27 0 -22 -2 -25 -10 -13 -8 12
-10 11 -10 -7 0 -13 -4 -23 -9 -23 -5 0 -12 -14 -16 -30 -4 -17 -10 -28 -15
-25 -7 4 -23 -31 -21 -47 1 -5 -4 -8 -10 -8 -5 0 -8 -4 -5 -9 3 -5 -1 -12 -9
-15 -8 -3 -14 -11 -13 -18 2 -7 -2 -12 -7 -11 -6 1 -12 -8 -12 -20 -1 -12 -7
-23 -13 -25 -5 -2 -10 -13 -10 -23 0 -13 -4 -18 -12 -13 -8 5 -9 2 -5 -10 5
-12 0 -19 -16 -26 -12 -5 -16 -9 -9 -9 9 -1 7 -10 -8 -31 -12 -16 -18 -35 -14
-42 5 -7 2 -9 -9 -5 -11 4 -17 -1 -19 -16 -2 -12 -9 -21 -15 -20 -7 2 -10 -3
-7 -11 3 -8 0 -17 -5 -21 -6 -3 -9 -11 -6 -16 4 -5 1 -9 -4 -9 -6 0 -11 -7
-11 -15 0 -9 -7 -18 -16 -22 -8 -3 -13 -12 -10 -19 3 -9 -1 -14 -12 -14 -15 0
-15 -2 -2 -10 13 -8 12 -10 -3 -10 -10 0 -15 -4 -12 -10 3 -5 1 -10 -4 -10 -6
0 -10 -3 -10 -7 3 -20 -2 -34 -11 -28 -5 3 -10 -3 -10 -14 0 -12 -4 -21 -10
-21 -5 0 -10 -9 -10 -20 0 -11 -6 -23 -14 -26 -8 -3 -13 -14 -11 -25 2 -10 -1
-18 -8 -16 -7 1 -12 -5 -12 -13 0 -8 -7 -22 -16 -30 -9 -8 -14 -21 -11 -28 2
-7 -2 -11 -10 -10 -8 2 -13 -6 -12 -19 1 -13 -4 -23 -12 -23 -12 0 -19 -19
-15 -42 0 -5 -4 -7 -11 -5 -7 1 -13 -5 -13 -13 0 -8 -6 -14 -13 -13 -6 2 -9
-3 -6 -11 3 -7 -2 -20 -10 -29 -9 -9 -16 -23 -16 -32 0 -10 -5 -13 -12 -9 -7
5 -9 2 -6 -8 4 -8 -2 -22 -13 -32 -11 -9 -17 -20 -14 -25 2 -5 -2 -11 -10 -15
-8 -3 -15 -15 -15 -26 0 -14 -4 -19 -12 -14 -7 5 -9 2 -5 -9 3 -9 0 -18 -9
-21 -8 -3 -14 -17 -14 -31 0 -16 -6 -25 -16 -25 -8 0 -12 -5 -9 -10 3 -6 -1
-13 -10 -16 -13 -6 -14 -8 -3 -15 10 -7 10 -9 1 -9 -7 0 -13 -6 -13 -14 0 -7
-7 -19 -15 -26 -8 -7 -12 -16 -9 -21 3 -5 -2 -9 -11 -9 -10 0 -15 -5 -12 -14
3 -7 -6 -25 -19 -39 -13 -15 -24 -29 -24 -32 1 -27 -1 -37 -7 -32 -7 8 -33
-39 -33 -60 0 -10 -6 -13 -16 -9 -8 3 -13 2 -10 -3 3 -5 -3 -20 -14 -33 -11
-14 -16 -29 -12 -32 4 -4 -1 -12 -10 -17 -10 -5 -15 -18 -13 -30 4 -18 2 -19
-11 -8 -8 7 -14 8 -13 3 5 -15 -24 -83 -33 -78 -4 3 -8 -3 -8 -14 0 -10 -11
-31 -25 -46 -14 -15 -25 -35 -25 -46 0 -10 -3 -20 -7 -22 -5 -1 -17 -20 -27
-40 -10 -21 -22 -35 -27 -32 -4 2 -6 -4 -4 -15 2 -11 -3 -22 -11 -25 -8 -3
-14 -14 -14 -25 0 -10 -7 -21 -15 -25 -8 -3 -14 -11 -13 -18 2 -7 -3 -12 -10
-10 -8 1 -11 -2 -8 -7 8 -13 -4 -42 -15 -35 -5 3 -8 2 -7 -3 4 -14 -13 -53
-23 -53 -5 0 -9 -7 -9 -15 0 -8 -5 -15 -11 -15 -6 0 -9 -6 -6 -14 3 -8 -1 -20
-9 -26 -8 -7 -14 -20 -14 -29 0 -14 -2 -14 -11 -1 -9 12 -10 11 -6 -7 3 -13 0
-23 -6 -23 -6 0 -7 -3 -4 -6 4 -4 -5 -17 -19 -29 -15 -13 -23 -28 -20 -34 4
-6 0 -14 -8 -17 -9 -3 -16 -14 -16 -24 0 -10 -7 -25 -15 -34 -8 -8 -15 -19
-15 -25 0 -6 -5 -11 -11 -11 -6 0 -8 -9 -3 -22 3 -13 3 -20 -1 -16 -12 11 -35
-11 -29 -26 3 -8 -2 -16 -11 -20 -9 -3 -13 -10 -10 -16 3 -5 2 -10 -4 -10 -6
0 -13 -11 -17 -25 -3 -14 -10 -25 -15 -25 -5 0 -9 -9 -9 -21 0 -11 -4 -17 -10
-14 -6 3 -10 -5 -10 -19 0 -14 -5 -28 -12 -32 -7 -5 -8 -3 -3 6 5 8 4 11 -3 7
-5 -4 -9 -18 -7 -32 2 -22 0 -23 -13 -13 -11 9 -14 9 -9 1 4 -6 3 -14 -3 -18
-6 -4 -8 -11 -5 -16 4 -5 0 -9 -8 -9 -10 0 -13 -7 -10 -20 4 -14 0 -20 -10
-20 -10 0 -14 -8 -12 -25 1 -15 -3 -25 -10 -25 -7 0 -19 -8 -26 -17 -12 -14
-12 -16 1 -9 8 4 6 0 -4 -8 -11 -9 -16 -16 -10 -16 5 0 0 -7 -10 -15 -11 -8
-16 -15 -10 -15 5 0 -2 -9 -16 -20 -21 -17 -22 -19 -5 -14 18 5 17 3 -4 -15
-13 -12 -18 -21 -12 -21 6 0 2 -9 -9 -20 -11 -11 -20 -30 -20 -42 0 -19 -2
-20 -10 -8 -8 12 -10 11 -10 -8 0 -12 -7 -25 -15 -28 -8 -4 -13 -10 -10 -14 3
-5 -2 -15 -10 -24 -9 -8 -16 -18 -15 -21 1 -26 -2 -35 -10 -30 -9 6 -14 -8
-11 -28 1 -4 -6 -10 -14 -13 -8 -4 -15 -13 -15 -21 0 -9 -5 -11 -13 -7 -8 5
-7 2 2 -9 12 -15 12 -17 -3 -11 -12 5 -15 2 -10 -10 4 -10 0 -18 -10 -22 -9
-3 -14 -10 -11 -14 3 -5 -2 -16 -11 -24 -8 -9 -12 -16 -7 -16 4 0 0 -5 -9 -11
-10 -5 -18 -21 -18 -34 0 -13 -6 -28 -14 -32 -8 -4 -16 -12 -18 -18 -2 -5 -6
-9 -10 -8 -4 2 -4 -5 -1 -14 4 -11 3 -14 -5 -9 -8 5 -10 2 -6 -8 3 -9 1 -16
-5 -16 -6 0 -11 -9 -11 -21 0 -11 -4 -17 -10 -14 -5 3 -10 -3 -10 -14 0 -11
-8 -25 -17 -30 -10 -6 -14 -11 -10 -11 5 0 -1 -12 -12 -26 -11 -15 -18 -30
-15 -35 3 -5 0 -9 -5 -9 -6 0 -11 -10 -12 -22 0 -13 -3 -17 -6 -10 -2 6 -9 10
-14 6 -5 -3 -5 -13 1 -24 8 -16 8 -18 -5 -14 -11 5 -17 -2 -21 -25 -4 -17 -10
-28 -15 -25 -5 3 -9 -7 -9 -21 0 -15 -4 -24 -10 -20 -5 3 -10 -1 -10 -10 0 -8
-6 -18 -14 -21 -8 -3 -12 -12 -9 -20 3 -7 -2 -17 -11 -20 -9 -3 -13 -10 -11
-15 3 -4 -2 -17 -12 -27 -10 -10 -19 -25 -21 -33 -2 -7 -8 -17 -14 -20 -5 -3
-9 -9 -9 -13 3 -20 -1 -26 -14 -26 -9 0 -12 -6 -9 -15 4 -8 1 -15 -6 -15 -6 0
-8 -5 -5 -10 3 -6 -1 -13 -9 -16 -9 -3 -14 -10 -11 -14 3 -4 -3 -11 -12 -14
-15 -6 -15 -8 -3 -16 12 -8 12 -10 -3 -16 -9 -3 -17 -16 -17 -28 0 -17 -2 -18
-10 -6 -8 12 -10 10 -11 -10 -1 -14 -1 -29 0 -33 1 -5 -3 -6 -9 -2 -9 6 -14
-8 -11 -28 1 -4 -6 -10 -14 -13 -8 -4 -15 -15 -15 -26 0 -10 -5 -16 -10 -13
-6 3 -10 -3 -10 -15 0 -11 -6 -23 -14 -26 -8 -3 -13 -14 -11 -25 2 -11 0 -17
-6 -14 -5 4 -9 2 -9 -2 0 -5 -7 -18 -16 -29 -8 -10 -12 -13 -8 -5 4 9 3 12 -4
7 -6 -4 -9 -13 -6 -21 3 -8 -7 -31 -23 -51 -15 -21 -27 -39 -25 -41 1 -2 2 -9
2 -15 0 -9 -4 -8 -10 2 -8 12 -10 9 -10 -12 0 -17 -5 -28 -14 -28 -9 0 -12 -7
-9 -20 3 -12 -1 -22 -11 -26 -9 -3 -13 -10 -10 -15 3 -5 -2 -12 -10 -15 -9 -3
-16 -10 -16 -16 0 -5 6 -6 13 -3 6 4 1 -3 -13 -15 -14 -12 -18 -19 -10 -15 11
5 10 2 -2 -7 -9 -8 -20 -26 -23 -40 -4 -17 -12 -25 -20 -21 -10 3 -13 -2 -9
-21 3 -21 1 -24 -13 -19 -12 5 -15 2 -10 -10 4 -10 0 -20 -11 -26 -9 -6 -13
-11 -8 -11 5 0 3 -7 -4 -15 -7 -8 -9 -15 -4 -15 5 0 5 -4 -1 -8 -21 -15 -50
-56 -35 -48 13 6 13 6 0 -6 -25 -21 -18 -40 15 -44 22 -2 26 -1 15 6 -8 5 -10
10 -5 10 6 0 16 -5 23 -12 9 -9 12 -9 12 1 0 7 5 9 12 4 7 -4 75 -8 150 -8 75
0 131 3 125 7 -16 11 24 5 41 -5 7 -5 12 -3 12 4 0 8 4 8 15 -1 11 -9 19 -10
28 -1 10 8 17 7 25 -1 9 -9 12 -9 12 2 0 11 3 11 12 2 7 -7 17 -12 23 -12 5 0
3 5 -5 10 -9 6 -10 10 -3 10 6 0 15 -5 18 -10 3 -6 11 -10 16 -10 6 0 7 4 4
10 -3 5 1 10 10 10 9 0 14 -3 12 -8 -3 -4 57 -7 133 -7 76 0 136 3 134 7 -5 8
17 5 34 -5 7 -5 12 -3 12 4 0 8 4 8 15 -1 11 -9 19 -10 28 -1 10 8 17 7 25 -1
9 -9 12 -9 12 1 0 11 3 11 15 1 9 -7 18 -10 22 -6 3 3 0 6 -7 6 -7 0 -10 3 -7
6 4 4 13 1 22 -6 12 -10 15 -10 15 0 0 8 4 9 13 3 15 -12 207 -10 226 1 10 6
12 5 7 -2 -4 -7 -3 -12 2 -12 10 0 26 29 24 43 -1 4 3 7 9 7 6 0 8 7 5 16 -5
12 -2 15 9 10 9 -3 13 -2 10 3 -3 5 -1 12 5 16 6 4 8 10 5 15 -3 4 2 11 11 14
9 4 14 13 10 22 -3 8 -2 12 3 9 5 -3 12 -1 16 5 3 5 0 10 -7 10 -10 0 -10 2 1
9 7 5 11 14 7 20 -5 7 -1 8 10 4 12 -4 15 -3 10 5 -4 6 2 20 14 32 11 11 17
20 12 20 -4 0 -1 4 6 9 7 4 14 18 15 29 1 12 5 22 9 22 4 0 8 6 8 14 0 8 7 17
16 20 8 3 12 10 9 16 -3 6 1 13 10 16 12 5 13 9 4 21 -10 11 -10 13 1 11 8 -2
14 4 15 12 1 8 6 14 12 13 6 -1 10 8 9 21 -2 18 1 23 12 18 9 -3 13 -1 9 5 -4
6 0 16 8 23 8 7 15 20 15 29 1 21 25 53 34 44 4 -4 4 1 0 11 -5 12 -2 21 8 27
9 5 19 21 23 36 3 15 15 35 26 44 11 10 19 19 18 21 -6 9 14 47 22 43 8 -6 13
8 10 28 -1 4 6 15 14 23 8 9 13 20 10 25 -4 5 1 9 9 9 9 0 16 5 16 11 0 5 -6
7 -12 3 -9 -5 -9 -3 1 9 7 9 17 14 22 11 5 -3 9 -2 8 3 -4 25 2 44 14 37 6 -4
9 -3 4 1 -4 5 0 19 8 32 9 13 13 23 10 23 -3 0 3 10 14 22 11 11 18 24 16 28
-3 5 2 10 10 14 8 3 15 12 15 21 0 8 6 15 13 15 8 0 7 4 -3 10 -10 6 -11 10
-2 10 6 0 12 6 12 14 0 7 11 25 25 40 13 14 21 26 18 26 -3 0 2 9 11 19 10 11
19 31 20 45 1 20 4 22 15 13 12 -10 14 -8 9 8 -3 11 0 26 6 32 27 29 34 41 29
47 -4 3 -1 6 5 6 7 0 9 7 5 18 -3 9 -3 14 2 10 9 -9 35 36 35 59 0 9 6 13 14
10 10 -4 13 -1 9 9 -3 7 -1 14 5 14 6 0 8 10 4 22 -3 14 -2 19 6 14 7 -4 12
-1 12 8 0 8 6 19 13 23 7 4 13 17 13 28 0 11 5 19 12 18 7 -2 12 5 12 16 0 10
11 29 24 42 13 13 22 32 20 42 -2 13 2 17 12 13 8 -3 14 0 13 7 -3 28 2 48 11
42 9 -5 15 16 11 38 -1 5 3 6 9 2 5 -3 11 -1 11 4 1 6 2 17 3 24 1 6 7 11 14
10 7 -2 11 0 11 5 -4 22 2 42 11 37 6 -4 10 5 10 19 0 14 4 26 10 26 5 0 12
11 16 25 3 14 10 22 16 19 5 -3 8 2 6 12 -2 11 2 18 8 17 6 -1 11 5 12 13 1 8
3 20 4 28 1 8 6 14 12 13 6 -1 10 6 8 16 -2 10 3 16 10 15 8 -2 12 4 10 15 -2
9 9 28 23 41 18 17 22 26 13 29 -10 4 -10 6 0 6 6 1 12 7 12 15 0 7 7 19 15
26 8 6 13 17 12 23 -1 7 4 11 10 10 7 -2 12 0 12 5 -3 20 2 33 11 27 6 -4 10
-3 9 2 -4 25 2 45 14 40 10 -4 13 2 9 20 -4 19 -2 24 8 18 8 -5 11 -3 8 6 -2
7 5 22 16 32 12 10 14 15 6 11 -10 -5 -9 0 4 14 11 12 16 22 12 22 -4 0 0 7 8
16 9 8 14 20 10 25 -3 5 0 8 7 7 13 -3 15 2 18 40 1 15 3 15 11 2 8 -12 10
-11 10 8 0 12 5 22 12 22 6 0 8 3 5 6 -8 8 21 63 43 82 9 8 10 11 2 7 -11 -6
-11 -3 0 14 7 12 16 21 20 21 5 0 8 9 8 21 0 11 5 17 10 14 6 -3 10 3 10 14 0
11 5 23 10 26 6 4 7 11 4 17 -4 7 -2 8 4 4 8 -5 12 0 12 13 0 12 9 26 20 33
11 7 20 16 20 21 0 4 -5 5 -12 1 -7 -4 -2 7 11 24 12 18 26 32 31 32 5 0 7 9
5 20 -3 13 0 18 7 14 8 -5 9 -1 5 10 -5 14 -3 17 8 12 11 -4 15 1 15 20 0 13
6 27 14 30 8 3 13 14 11 25 -2 12 2 19 11 19 8 0 13 4 9 9 -3 6 2 14 11 19 9
5 17 20 17 35 1 14 7 25 12 24 6 -1 9 4 7 11 -1 7 5 15 13 18 8 4 15 15 15 25
0 11 7 22 15 25 12 5 13 9 4 20 -10 12 -9 13 5 8 9 -4 16 -3 15 2 -3 19 1 35
9 30 5 -3 9 1 10 9 1 8 3 22 4 30 1 8 6 15 13 15 6 0 17 16 24 35 7 19 17 35
23 35 6 0 6 6 -2 15 -11 13 -10 14 5 9 12 -5 16 -4 12 3 -4 6 0 16 8 23 8 7
12 16 9 21 -3 5 2 12 10 15 9 3 16 14 16 23 0 10 9 27 20 39 11 12 21 25 23
29 1 5 6 7 11 5 5 -2 4 3 -2 10 -7 9 -8 19 -2 28 9 13 10 13 10 0 0 -8 9 3 20
25 10 22 16 44 13 49 -4 5 -1 6 4 3 6 -4 16 6 22 23 5 17 13 30 16 30 3 0 3
-5 -1 -12 -4 -7 -3 -8 5 -4 9 6 9 11 1 21 -8 9 -6 14 5 19 8 3 15 12 15 21 0
8 5 15 11 15 6 0 9 7 5 15 -3 10 1 15 12 15 15 0 15 2 2 10 -13 8 -13 10 1 10
10 0 16 7 15 18 0 10 5 16 13 14 9 -2 12 4 8 18 -3 11 -1 20 5 20 5 0 6 4 3
10 -3 5 0 7 9 4 11 -4 13 0 9 17 -4 14 -2 20 4 16 12 -8 26 20 17 34 -3 5 2 9
10 9 14 0 20 12 17 33 0 4 4 7 10 7 5 0 8 4 4 9 -3 5 -1 12 5 16 6 4 7 11 4
17 -5 8 -1 9 10 5 14 -5 17 -3 13 8 -4 8 -2 17 4 20 5 4 6 11 3 17 -4 6 -2 8
3 5 11 -7 23 12 30 46 2 11 13 28 26 39 12 11 15 17 7 13 -10 -4 -9 -2 2 8 10
8 15 17 11 20 -3 4 -1 7 6 7 8 0 11 6 7 16 -3 8 -2 12 4 9 6 -3 10 3 10 13 0
11 7 22 15 26 9 3 12 12 8 22 -4 12 -3 15 5 10 11 -7 17 13 13 38 -1 5 5 6 14
2 9 -3 13 -2 10 4 -3 6 -2 10 4 10 6 0 8 6 5 13 -3 8 2 20 10 27 9 7 13 16 10
21 -3 5 -2 9 3 8 20 -3 27 2 13 11 -10 6 -11 10 -2 10 6 0 12 7 12 16 0 8 5
12 10 9 6 -3 10 1 10 9 0 15 32 78 51 102 5 6 5 14 1 18 -4 4 0 6 8 4 8 -2 14
3 12 10 -1 6 2 12 8 12 5 0 10 9 10 21 0 11 4 18 8 15 4 -2 9 5 9 16 2 28 12
35 23 18 7 -11 8 -5 5 18 -2 17 1 32 6 32 6 0 7 5 3 12 -5 8 -2 9 10 5 9 -4
14 -3 11 2 -3 5 0 13 6 16 5 4 8 13 5 21 -3 9 1 14 12 14 15 0 15 2 2 10 -13
8 -12 10 3 10 10 0 15 5 12 10 -3 6 0 13 9 16 8 3 12 12 10 19 -3 7 4 19 16
25 12 6 18 16 14 23 -5 9 -4 9 5 1 7 -6 13 -21 14 -33 1 -13 6 -20 14 -17 8 4
13 -3 13 -19 0 -14 5 -25 10 -25 6 0 10 -7 10 -15 0 -8 5 -15 10 -15 6 0 10
-9 10 -20 0 -11 5 -20 10 -20 6 0 10 -7 10 -16 0 -9 5 -12 13 -8 7 5 7 2 -2
-10 -12 -15 -12 -17 0 -14 8 2 13 -4 13 -14 -2 -17 8 -23 30 -19 5 1 4 -5 -4
-13 -9 -12 -9 -16 -1 -16 7 0 17 -13 22 -30 6 -16 14 -28 18 -25 4 2 8 -2 9
-10 1 -8 3 -22 4 -30 1 -8 5 -12 10 -9 4 3 8 -4 8 -16 0 -12 4 -19 8 -16 4 2
18 -18 30 -45 13 -27 27 -49 32 -49 5 0 7 -7 4 -15 -4 -8 -1 -15 5 -15 6 0 11
-12 11 -26 0 -23 2 -25 16 -14 8 8 14 9 13 4 -4 -25 2 -54 11 -49 9 5 15 -15
11 -37 0 -5 5 -8 13 -8 9 0 12 -7 9 -20 -4 -14 -1 -20 8 -18 8 2 13 -3 11 -9
-1 -7 2 -13 7 -13 5 0 11 -10 13 -22 2 -13 8 -22 14 -21 6 1 11 -5 12 -13 1
-7 3 -21 4 -29 1 -8 8 -17 15 -19 8 -3 11 -10 8 -16 -3 -6 1 -13 9 -16 9 -3
16 -15 16 -26 0 -10 5 -16 10 -13 9 5 15 -15 11 -37 0 -5 3 -8 9 -8 5 0 10 -9
10 -21 0 -11 4 -18 8 -15 5 3 15 -10 22 -29 8 -19 18 -35 22 -35 5 0 6 -4 3
-10 -3 -5 -1 -10 5 -10 6 0 8 -4 5 -10 -3 -5 -1 -10 5 -10 6 0 9 -4 6 -9 -3
-5 1 -12 10 -15 8 -3 12 -10 9 -16 -3 -6 1 -13 9 -16 9 -3 14 -10 11 -14 -3
-5 2 -15 10 -23 8 -9 15 -21 15 -27 0 -6 7 -18 15 -27 8 -8 13 -19 10 -24 -4
-5 1 -9 10 -9 11 0 15 -5 12 -14 -3 -8 -2 -16 3 -18 5 -2 10 -9 12 -17 2 -8
11 -22 20 -32 9 -10 15 -27 13 -38 -2 -11 -1 -20 3 -20 22 3 30 -3 27 -21 -2
-11 0 -18 6 -15 5 4 9 -3 9 -15 0 -14 4 -19 12 -14 8 5 9 2 5 -9 -4 -11 -1
-17 8 -17 8 0 15 -9 15 -20 0 -11 8 -24 17 -27 15 -6 15 -7 -3 -14 -15 -6 -15
-8 -3 -8 17 -1 51 -59 43 -73 -3 -5 0 -7 8 -6 7 2 14 -8 16 -21 3 -19 6 -21
14 -10 7 11 9 8 5 -8 -4 -17 0 -23 11 -24 10 0 12 -3 5 -6 -9 -3 -7 -11 7 -26
11 -11 20 -32 21 -46 0 -14 3 -20 6 -13 3 8 12 1 23 -20 10 -18 16 -36 13 -40
-2 -5 1 -8 8 -8 7 0 10 -3 6 -6 -9 -9 26 -44 37 -37 6 4 5 -1 -3 -10 -9 -11
-10 -17 -2 -17 6 0 11 -7 11 -15 0 -8 5 -15 10 -15 6 0 10 -9 10 -20 0 -11 5
-20 10 -20 6 0 10 -9 10 -20 0 -12 7 -20 16 -20 10 0 14 -6 10 -15 -3 -8 -1
-15 5 -15 6 0 8 -4 5 -8 -3 -5 4 -15 15 -22 10 -8 19 -25 19 -37 0 -13 4 -23
9 -23 5 0 11 -10 13 -22 2 -13 9 -22 16 -21 6 2 12 -6 12 -17 0 -11 5 -20 11
-20 5 0 7 -4 4 -10 -3 -5 -2 -10 4 -10 6 0 7 -7 4 -17 -4 -11 -3 -14 5 -9 7 4
12 2 12 -3 0 -18 3 -26 17 -39 7 -8 10 -19 6 -25 -4 -7 0 -8 11 -4 10 4 15 3
11 -3 -3 -6 3 -24 15 -40 15 -21 17 -30 8 -31 -7 0 -3 -4 10 -9 12 -5 22 -16
22 -25 0 -8 6 -15 13 -15 8 0 7 -4 -3 -10 -11 -7 -11 -10 -2 -10 7 0 10 -4 7
-10 -3 -5 1 -10 9 -10 9 0 16 -7 16 -15 0 -17 18 -52 38 -73 7 -7 10 -18 7
-23 -4 -5 0 -9 8 -9 9 0 14 -9 13 -22 -1 -15 4 -23 15 -22 11 1 14 -5 11 -21
-2 -13 2 -26 9 -30 8 -6 10 -4 4 6 -5 8 -4 11 1 6 5 -5 9 -12 10 -15 2 -19 29
-62 38 -62 6 0 4 -5 -4 -10 -13 -8 -13 -10 2 -10 12 0 15 -5 11 -17 -4 -9 -2
-14 3 -10 5 3 14 -6 21 -19 8 -18 8 -23 0 -18 -7 3 -2 -3 9 -13 12 -10 20 -26
19 -36 -2 -9 1 -15 6 -11 5 3 9 -2 9 -11 0 -9 5 -13 10 -10 6 3 10 -3 10 -14
0 -11 6 -24 13 -28 6 -4 12 -15 12 -23 0 -8 6 -14 13 -12 7 1 12 -3 11 -10 -3
-29 2 -49 11 -43 6 3 10 -1 10 -9 0 -9 5 -16 11 -16 8 0 7 -5 -1 -16 -11 -12
-11 -15 0 -12 8 2 15 -4 15 -12 0 -8 7 -14 14 -12 7 1 11 -5 9 -15 -2 -10 5
-26 15 -35 10 -9 16 -22 12 -27 -3 -6 1 -11 9 -11 9 0 16 -6 16 -13 0 -18 24
-67 33 -67 4 0 7 -7 7 -16 0 -8 7 -22 15 -31 8 -8 13 -19 10 -24 -4 -5 0 -9 9
-9 9 0 13 -8 12 -24 -2 -18 1 -23 11 -19 9 4 13 0 11 -8 -1 -8 8 -26 22 -42
13 -15 25 -35 26 -44 4 -24 26 -63 33 -58 4 2 8 -6 8 -18 1 -12 7 -23 13 -25
5 -2 8 -8 4 -13 -3 -5 0 -9 6 -9 6 0 8 -5 5 -10 -3 -5 1 -10 9 -10 9 0 13 -6
10 -13 -3 -8 2 -20 11 -27 8 -7 15 -21 15 -31 0 -10 4 -21 10 -24 6 -4 7 1 4
12 -5 14 -4 15 4 4 6 -8 8 -21 4 -29 -3 -10 -1 -13 6 -8 8 5 10 2 6 -8 -4 -9
-1 -16 6 -16 7 0 10 -7 7 -14 -4 -10 -1 -13 9 -9 8 3 14 2 13 -3 -4 -23 2 -45
11 -39 6 4 10 -5 10 -20 0 -15 4 -24 10 -20 9 6 14 -8 11 -27 0 -5 4 -8 10 -8
5 0 7 -5 4 -10 -3 -5 -2 -10 2 -10 5 0 17 -13 26 -30 10 -16 15 -30 10 -30 -4
0 3 -7 16 -16 18 -13 20 -18 10 -25 -11 -7 -10 -9 4 -9 10 0 17 -6 16 -12 -3
-26 1 -39 11 -33 9 5 15 -16 11 -38 -1 -5 2 -6 7 -3 5 3 15 -10 22 -29 8 -19
18 -35 22 -35 5 0 7 -4 4 -9 -3 -5 1 -12 10 -15 9 -4 14 -13 10 -21 -3 -8 -2
-15 2 -15 4 0 16 -13 27 -28 19 -27 19 -27 0 -12 -19 14 -19 14 0 -10 11 -13
26 -31 33 -38 7 -7 10 -18 7 -23 -4 -5 -2 -9 4 -9 9 0 20 -22 21 -45 1 -5 10
-13 20 -17 11 -4 17 -13 14 -21 -3 -8 8 -29 23 -48 15 -18 21 -29 13 -24 -11
6 -10 3 3 -12 9 -11 14 -23 10 -26 -3 -4 0 -7 8 -7 8 0 16 -10 16 -22 1 -13 7
-24 13 -26 5 -2 10 -12 10 -22 0 -10 7 -20 15 -24 8 -3 14 -11 13 -18 -2 -7 2
-12 9 -11 7 2 10 -6 8 -17 -2 -13 2 -20 11 -20 8 0 14 -9 14 -20 0 -10 8 -24
18 -29 10 -6 12 -11 4 -11 -7 0 -10 -5 -7 -10 4 -6 10 -8 15 -5 5 3 12 0 16
-6 4 -8 3 -9 -4 -5 -7 4 -12 2 -12 -3 0 -6 5 -11 10 -11 6 0 9 -6 8 -12 -2 -7
3 -12 10 -10 8 1 11 -2 8 -7 -3 -5 1 -14 9 -21 8 -7 15 -19 15 -26 0 -8 6 -14
13 -14 9 0 8 -3 -2 -9 -9 -6 -4 -8 17 -8 17 1 28 5 26 8 -5 9 17 6 34 -4 7 -5
12 -3 12 4 0 8 4 8 15 -1 9 -7 18 -10 22 -6 3 3 0 6 -7 6 -7 0 -10 3 -7 6 4 4
13 1 22 -6 11 -9 15 -9 15 -1 0 7 5 9 13 4 6 -4 74 -8 149 -8 75 0 131 3 125
7 -16 11 24 5 41 -5 7 -5 12 -3 12 4 0 8 4 8 15 -1 11 -9 19 -10 28 -1 10 8
17 7 25 -1 9 -9 12 -9 12 1 0 11 3 11 15 1 11 -9 19 -10 28 -1 10 8 17 7 25
-1 9 -9 12 -9 12 1 0 11 3 11 15 1 11 -9 19 -10 28 -1 10 8 17 7 25 -1 9 -9
12 -9 12 1 0 11 3 11 15 1 9 -7 18 -10 22 -6 3 3 0 6 -7 6 -7 0 -10 3 -7 6 4
4 13 1 22 -6 11 -9 15 -9 15 -1 0 7 5 9 13 4 6 -4 74 -8 149 -8 75 0 131 3
125 7 -16 11 24 5 41 -5 7 -5 12 -3 12 4 0 8 4 8 15 -1 11 -9 19 -10 28 -1 10
8 17 7 25 -1 9 -9 12 -9 12 2 0 11 3 11 12 2 7 -7 17 -12 23 -12 5 0 3 5 -5
10 -12 7 -10 9 7 7 12 0 19 -5 17 -9 -3 -4 2 -8 10 -8 9 0 15 6 14 13 -2 6 4
10 12 9 8 -2 11 0 7 5 -5 4 -14 8 -20 8 -7 0 -12 9 -12 20 0 11 -6 19 -13 17
-9 -2 -11 4 -7 18 5 14 2 20 -9 20 -10 0 -16 9 -16 24 0 13 -5 26 -10 28 -6 2
-12 13 -13 25 0 12 -6 21 -12 20 -5 -1 -9 6 -9 15 1 10 -2 16 -6 13 -5 -3 -11
4 -15 15 -3 11 -11 20 -17 20 -5 0 -8 7 -4 15 3 8 1 15 -5 15 -6 0 -8 4 -5 9
3 5 -1 12 -10 15 -8 3 -13 10 -10 15 3 5 -1 11 -9 15 -8 3 -15 12 -15 21 0 9
-9 26 -20 38 -11 12 -19 28 -18 37 3 17 -37 62 -47 52 -3 -4 -3 1 0 10 3 8 -1
23 -10 32 -9 9 -18 23 -19 30 -1 8 -8 21 -15 30 -7 8 -10 20 -6 25 3 7 0 8
-10 5 -9 -4 -15 -3 -14 2 4 23 -2 45 -11 39 -5 -3 -10 3 -10 14 0 10 -4 21 -9
23 -5 2 -11 10 -13 18 -2 8 -9 21 -16 28 -7 8 -10 18 -7 23 4 5 -1 9 -10 9 -9
0 -13 5 -10 10 3 5 1 10 -5 10 -6 0 -8 5 -5 10 3 6 1 10 -5 10 -6 0 -8 5 -5
10 3 6 1 10 -6 10 -7 0 -9 3 -6 7 4 3 -1 12 -11 20 -10 9 -11 11 -2 7 13 -7
13 -5 1 9 -7 9 -17 14 -22 11 -5 -3 -6 2 -3 10 4 9 -1 18 -10 22 -9 3 -16 10
-16 16 0 5 6 6 13 3 6 -4 4 0 -6 8 -10 9 -18 19 -19 24 0 4 -4 7 -8 6 -5 -2
-7 6 -5 17 2 11 0 20 -4 20 -5 0 -16 12 -26 26 -12 18 -13 24 -4 19 8 -3 4 2
-8 13 -12 11 -19 22 -16 26 3 3 -4 14 -15 25 -12 10 -22 28 -22 40 0 11 -4 21
-10 21 -5 0 -10 6 -10 14 0 7 -7 19 -15 26 -8 7 -12 16 -9 21 3 5 0 9 -5 9 -6
0 -11 7 -11 15 0 9 -7 18 -16 22 -8 3 -13 12 -10 19 3 7 0 16 -6 20 -7 5 -8 2
-3 -6 5 -9 4 -11 -4 -6 -9 6 -9 11 1 24 10 12 10 14 0 8 -8 -5 -15 1 -21 16
-5 13 -16 30 -25 37 -9 7 -16 22 -16 31 0 10 -5 20 -10 22 -6 2 -12 13 -13 25
0 12 -5 19 -9 17 -4 -3 -8 5 -8 16 0 15 -5 20 -14 17 -11 -4 -13 -1 -9 10 5
12 3 14 -7 8 -8 -5 -11 -4 -7 2 6 10 -19 73 -29 73 -3 0 -2 -5 2 -12 4 -7 3
-8 -5 -4 -9 6 -9 11 -1 21 7 9 6 16 -5 25 -13 11 -14 10 -9 -6 9 -24 0 -16
-16 15 -10 19 -10 22 2 16 7 -3 5 0 -4 8 -10 8 -15 17 -11 20 3 4 1 7 -6 7 -7
0 -9 5 -6 10 3 6 1 10 -4 10 -6 0 -11 9 -11 21 0 11 -4 17 -10 14 -9 -5 -15
16 -11 38 1 5 -3 6 -8 3 -5 -4 -13 4 -16 16 -4 13 -14 31 -23 41 -8 9 -11 17
-7 17 4 0 -1 8 -12 17 -11 10 -18 24 -16 31 3 6 0 12 -6 12 -6 0 -11 9 -11 19
0 10 -7 22 -16 25 -9 4 -14 9 -11 12 3 4 -1 13 -9 21 -8 8 -12 19 -9 24 4 5
-1 9 -9 9 -9 0 -13 6 -10 14 3 8 0 17 -7 22 -8 5 -10 3 -4 -6 5 -8 4 -11 -3
-6 -6 4 -9 13 -5 21 3 8 0 15 -7 15 -6 0 -8 5 -5 10 3 6 2 10 -3 10 -5 0 -12
9 -15 21 -4 14 -10 18 -19 13 -9 -5 -8 -2 2 11 9 11 10 16 3 11 -8 -4 -13 -2
-13 8 0 8 -4 16 -9 18 -5 2 -11 10 -13 18 -2 8 -11 23 -20 34 -10 11 -18 30
-18 43 0 13 -5 22 -12 20 -7 -1 -12 4 -10 11 3 17 -33 64 -42 54 -4 -3 -4 1 0
11 3 9 2 17 -4 17 -6 0 -8 10 -5 23 4 18 3 19 -6 7 -10 -13 -15 -8 -12 13 0 4
-4 7 -10 7 -5 0 -7 4 -4 10 3 6 1 10 -4 10 -6 0 -11 7 -11 15 0 9 -9 25 -20
37 -11 12 -20 28 -20 36 0 8 -7 20 -14 26 -8 6 -16 18 -18 26 -2 8 -7 20 -13
27 -5 7 -15 18 -21 25 -6 8 -9 19 -6 26 2 6 -3 12 -12 12 -9 0 -15 3 -15 8 4
27 -3 52 -16 52 -8 0 -19 9 -25 20 -7 13 -7 20 -1 20 6 0 -1 11 -14 25 -14 13
-25 31 -25 40 0 8 -5 15 -11 15 -5 0 -8 4 -4 9 3 5 -2 17 -11 25 -8 9 -12 16
-7 16 4 0 -1 7 -11 15 -11 8 -16 15 -11 15 5 0 0 7 -11 15 -19 15 -19 15 0 8
19 -6 19 -6 0 14 -10 11 -23 18 -27 15 -5 -2 -8 4 -7 14 4 33 0 45 -10 39 -5
-3 -10 1 -10 9 0 9 -5 16 -11 16 -5 0 -8 4 -4 9 3 5 -1 16 -10 24 -8 8 -16 21
-17 28 -2 8 -12 22 -23 32 -11 10 -20 24 -21 30 0 7 -2 18 -2 25 -1 6 -10 12
-19 12 -15 0 -16 2 -3 10 10 6 11 10 3 10 -7 0 -13 7 -13 16 0 8 -4 12 -10 9
-6 -4 -10 7 -10 27 0 25 -3 29 -10 18 -8 -12 -10 -11 -10 6 0 12 -7 25 -15 28
-9 3 -15 14 -13 23 2 11 -2 17 -10 15 -8 -1 -11 2 -8 7 4 5 2 12 -4 16 -5 3
-10 15 -10 26 0 10 -5 19 -11 19 -5 0 -7 5 -3 12 5 7 2 9 -9 5 -11 -4 -14 -2
-11 7 3 8 0 17 -5 21 -6 3 -9 11 -6 16 4 5 1 9 -4 9 -6 0 -11 10 -11 23 0 18
-2 19 -10 7 -8 -13 -10 -12 -10 4 0 10 -8 25 -17 33 -10 8 -12 11 -5 8 11 -6
12 -3 2 14 -6 13 -16 19 -23 15 -7 -4 -9 -4 -5 1 4 4 2 17 -4 29 -7 11 -12 25
-13 29 0 4 -6 11 -13 16 -7 4 -15 17 -16 27 -2 10 -9 18 -16 16 -7 -2 -10 3
-7 12 4 9 0 22 -8 30 -8 8 -15 25 -15 38 0 18 -2 20 -10 8 -8 -12 -10 -11 -10
8 0 12 -4 22 -10 22 -5 0 -10 9 -10 21 0 11 -4 18 -9 15 -5 -3 -12 1 -15 10
-4 10 -2 13 7 8 8 -5 8 -2 -2 9 -7 9 -18 14 -25 10 -6 -3 -8 -2 -3 2 4 5 0 19
-9 33 -12 18 -12 23 -3 17 8 -3 6 0 -3 8 -10 8 -18 23 -18 33 0 16 -2 17 -10
4 -8 -12 -10 -9 -10 13 0 15 -4 27 -10 27 -5 0 -10 5 -10 11 0 7 -8 18 -17 26
-11 9 -12 12 -3 7 8 -4 5 4 -8 18 -13 14 -24 35 -25 46 0 11 -5 18 -9 16 -4
-3 -8 2 -8 10 0 9 -4 16 -10 16 -5 0 -10 15 -11 33 0 17 -3 26 -6 20 -5 -14
-24 -18 -22 -5 4 27 -3 52 -16 52 -9 0 -12 6 -8 17 4 11 3 14 -5 9 -11 -7 -17
11 -13 41 1 8 -5 10 -16 6 -10 -3 -15 -3 -11 2 4 4 0 14 -10 22 -10 9 -11 11
-2 7 12 -7 13 -5 3 8 -7 8 -9 19 -5 23 4 5 1 4 -7 0 -11 -6 -13 -4 -8 8 4 10
2 16 -6 14 -7 -1 -11 6 -11 15 1 10 -2 15 -7 12 -5 -3 -10 0 -10 5 -1 6 -2 17
-3 24 -1 6 -7 11 -14 9 -7 -1 -12 8 -12 21 0 13 -9 33 -19 44 -11 12 -17 24
-14 27 4 3 -2 6 -12 6 -15 0 -16 3 -7 12 9 9 5 17 -14 35 -14 12 -22 23 -18
23 4 0 -1 10 -12 22 -13 14 -14 19 -4 14 8 -4 6 0 -4 8 -11 9 -16 16 -11 16 5
0 1 6 -10 13 -10 8 -15 19 -11 26 4 6 0 14 -8 17 -9 3 -16 12 -16 20 0 8 -5
14 -11 14 -5 0 -7 5 -4 10 3 6 0 13 -9 16 -8 3 -17 13 -20 21 -6 14 -4 14 11
2 10 -7 3 3 -16 24 -19 20 -35 46 -36 58 -1 11 -8 25 -16 30 -8 5 -9 9 -4 9 7
0 7 3 0 8 -5 4 -19 18 -30 32 -18 23 -19 24 -1 10 18 -14 18 -14 6 7 -8 12
-18 19 -22 17 -4 -3 -8 3 -8 14 0 10 -9 28 -21 40 -11 13 -21 31 -22 42 -1 11
-7 20 -15 20 -7 0 -10 5 -7 10 3 6 0 10 -7 10 -9 0 -9 3 2 10 13 8 12 10 -3
10 -10 0 -16 4 -13 9 3 4 -2 17 -10 27 -9 10 -12 12 -8 4 4 -9 3 -12 -2 -7 -9
9 -10 13 -13 43 0 8 -5 12 -11 9 -5 -3 -10 3 -10 14 0 12 -4 21 -10 21 -5 0
-10 9 -10 20 0 11 -5 20 -11 20 -5 0 -8 4 -4 9 3 6 -2 14 -11 19 -9 5 -18 21
-19 36 -2 15 -7 31 -11 34 -4 4 -4 -1 -1 -11 4 -11 3 -16 -3 -12 -6 3 -10 15
-10 26 0 11 -7 19 -17 19 -15 0 -16 2 -3 10 13 9 7 14 -13 11 -4 0 -6 2 -5 6
3 17 -15 62 -23 57 -5 -3 -9 4 -9 15 0 12 -5 21 -11 21 -5 0 -7 5 -4 10 3 6 1
10 -6 10 -7 0 -10 3 -6 6 3 4 -1 13 -9 21 -8 8 -12 19 -9 24 4 5 -1 9 -10 9
-9 0 -13 5 -10 10 3 6 0 13 -9 16 -8 3 -13 11 -10 18 3 7 -4 20 -15 30 -11 10
-17 24 -15 31 3 7 -2 15 -10 18 -9 4 -16 13 -16 22 0 8 -4 15 -10 15 -5 0 -10
9 -10 21 0 11 -4 17 -10 14 -6 -4 -10 5 -10 20 0 17 -4 24 -12 19 -8 -5 -9 -2
-5 9 3 10 2 17 -4 17 -5 0 -15 14 -20 30 -6 17 -18 30 -26 30 -13 0 -13 2 -2
17 10 11 10 14 2 9 -8 -4 -13 -2 -13 4 0 6 -4 8 -10 5 -5 -3 -7 0 -4 8 3 8 -2
21 -10 30 -9 9 -16 23 -16 32 0 9 -4 13 -10 10 -5 -3 -10 3 -10 14 0 10 -6 22
-12 24 -10 4 -10 6 0 6 8 1 2 11 -12 24 -14 13 -23 27 -19 30 3 4 1 7 -6 7 -7
0 -9 5 -6 10 3 6 1 10 -4 10 -6 0 -11 8 -11 18 -1 23 -25 54 -35 44 -5 -4 -6
0 -2 10 3 9 -2 23 -14 34 -10 9 -19 26 -19 36 0 11 -4 16 -10 13 -6 -3 -10 5
-10 18 0 14 -7 28 -16 31 -9 3 -14 12 -11 20 6 15 -26 50 -36 40 -4 -4 -5 3
-2 15 2 11 -1 21 -6 21 -6 0 -7 5 -4 10 3 6 1 10 -5 10 -6 0 -9 4 -6 9 3 5 -4
11 -15 14 -13 4 -19 12 -17 24 1 10 -1 19 -6 20 -9 2 -36 50 -36 65 0 5 -7 16
-15 24 -8 8 -12 21 -8 30 3 9 0 14 -8 12 -8 -2 -15 7 -17 20 -2 12 -8 20 -13
17 -8 -5 -14 16 -10 38 0 4 -6 7 -15 7 -8 0 -13 4 -9 9 3 5 -2 16 -10 24 -8 9
-15 23 -15 32 0 9 -4 13 -10 10 -6 -4 -10 5 -10 20 0 15 -4 24 -10 20 -9 -6
-15 16 -11 39 1 5 -5 6 -14 3 -9 -4 -15 -1 -15 8 0 20 -36 19 -44 -1z m-3922
-7112 c3 -5 -1 -9 -9 -9 -8 0 -12 4 -9 9 3 4 7 8 9 8 2 0 6 -4 9 -8z m960 0
c3 -5 -1 -9 -9 -9 -8 0 -12 4 -9 9 3 4 7 8 9 8 2 0 6 -4 9 -8z m6080 0 c3 -5
-1 -9 -9 -9 -8 0 -12 4 -9 9 3 4 7 8 9 8 2 0 6 -4 9 -8z m640 0 c3 -5 -1 -9
-9 -9 -8 0 -12 4 -9 9 3 4 7 8 9 8 2 0 6 -4 9 -8z"/>
<path d="M4230 3495 c-7 -14 -18 -25 -24 -25 -6 0 -4 -5 4 -10 13 -8 12 -10
-3 -10 -10 0 -16 -4 -13 -9 3 -5 -1 -11 -9 -15 -8 -3 -15 -15 -15 -26 0 -11
-5 -20 -11 -20 -5 0 -7 -5 -4 -10 3 -6 -1 -13 -10 -16 -13 -6 -14 -8 -3 -15
10 -7 8 -9 -6 -9 -11 0 -16 -3 -13 -7 4 -3 1 -13 -7 -22 -8 -9 -16 -20 -18
-26 -2 -5 -7 -9 -11 -7 -4 1 -7 -6 -5 -15 2 -12 -2 -17 -12 -15 -8 2 -12 1 -8
-3 8 -9 -11 -65 -23 -65 -5 0 -9 -9 -9 -21 0 -11 -4 -17 -10 -14 -5 3 -10 -1
-10 -9 0 -9 -9 -25 -20 -36 -11 -11 -15 -20 -9 -20 5 0 7 -5 4 -10 -4 -6 -11
-8 -16 -5 -5 4 -6 -2 -2 -11 5 -13 2 -16 -9 -12 -11 5 -15 0 -14 -20 0 -17 -4
-26 -12 -24 -8 1 -12 -5 -10 -15 2 -10 -2 -17 -10 -15 -6 1 -11 -1 -10 -5 4
-19 -16 -65 -34 -77 -11 -8 -17 -19 -14 -24 3 -5 -1 -15 -9 -22 -8 -7 -15 -18
-15 -25 0 -7 -7 -16 -15 -19 -9 -3 -15 -14 -13 -23 2 -10 -2 -17 -9 -16 -8 2
-13 -7 -13 -22 0 -14 -7 -28 -15 -31 -10 -4 -13 -13 -10 -25 5 -15 3 -17 -11
-12 -12 4 -15 2 -12 -8 3 -8 -1 -19 -9 -24 -8 -6 -15 -20 -16 -32 0 -12 -5
-19 -9 -17 -4 3 -8 -1 -8 -9 0 -8 -7 -18 -15 -21 -9 -3 -15 -14 -13 -23 2 -10
-2 -17 -9 -16 -6 2 -10 -5 -8 -16 2 -10 -1 -24 -6 -32 -7 -12 -9 -12 -9 1 0
12 -2 13 -9 1 -5 -7 -6 -23 -4 -35 4 -17 3 -18 -6 -6 -9 13 -11 13 -11 -2 0
-9 -6 -23 -12 -30 -20 -22 -38 -56 -38 -73 0 -9 -4 -13 -10 -10 -9 5 -15 -15
-11 -37 0 -5 -4 -7 -11 -5 -12 2 -14 -4 -17 -39 0 -8 -4 -13 -8 -11 -5 3 -14
-1 -21 -9 -7 -8 -8 -14 -2 -14 5 0 10 -5 10 -11 0 -5 -4 -8 -9 -5 -7 5 -25
-24 -30 -49 -1 -5 -9 -14 -17 -18 -8 -4 -14 -15 -14 -22 0 -8 -4 -15 -10 -15
-5 0 -10 -12 -10 -26 0 -14 -4 -23 -10 -19 -5 3 -10 3 -11 -2 -3 -30 -10 -48
-22 -55 -8 -4 -18 -19 -21 -33 -4 -17 -11 -23 -19 -18 -7 4 -7 0 2 -10 12 -15
12 -17 -2 -11 -12 4 -14 1 -10 -15 5 -19 -4 -26 -28 -23 -4 1 -5 -6 -2 -16 2
-9 -5 -27 -16 -39 -12 -12 -22 -30 -24 -40 -4 -27 -32 -64 -42 -55 -5 4 -5 2
-2 -5 4 -6 1 -18 -7 -26 -8 -8 -12 -17 -9 -21 4 -3 1 -6 -6 -6 -7 0 -9 -4 -6
-10 3 -5 1 -10 -5 -10 -7 0 -9 -7 -6 -16 3 -8 2 -13 -3 -10 -8 6 -23 -17 -26
-39 0 -5 -7 -9 -14 -7 -8 2 -11 -3 -8 -12 4 -9 2 -18 -4 -22 -6 -3 -8 -12 -5
-20 3 -8 0 -13 -7 -11 -7 1 -11 -4 -9 -10 1 -7 -2 -13 -8 -13 -5 0 -10 -5 -10
-11 0 -7 -10 -20 -22 -30 -13 -12 -16 -19 -8 -19 9 0 7 -6 -6 -16 -10 -8 -12
-13 -4 -9 12 5 12 4 -1 -7 -9 -7 -14 -19 -12 -26 3 -8 -1 -10 -12 -6 -9 4 -15
3 -14 -2 4 -23 -2 -45 -11 -39 -5 3 -10 -2 -10 -13 0 -10 -9 -28 -20 -40 -11
-12 -20 -28 -20 -37 0 -9 -7 -18 -15 -21 -8 -4 -13 -10 -10 -14 3 -5 -1 -15
-9 -23 -8 -8 -18 -26 -22 -41 -3 -14 -10 -26 -14 -26 -4 0 -10 -9 -13 -21 -3
-12 -10 -18 -16 -14 -7 3 -8 0 -5 -9 3 -9 1 -16 -5 -16 -6 0 -10 -3 -10 -7 3
-20 -2 -34 -11 -28 -6 4 -10 -5 -10 -20 0 -14 -7 -28 -15 -31 -8 -4 -13 -9
-11 -13 2 -3 -4 -21 -14 -39 -11 -21 -20 -28 -23 -20 -4 8 -6 7 -6 -4 -1 -10
0 -19 2 -21 1 -2 -6 -11 -16 -21 -9 -10 -14 -23 -10 -29 4 -7 0 -8 -11 -4 -10
4 -15 3 -11 -3 3 -6 1 -10 -6 -10 -9 0 -10 -3 -2 -11 8 -8 4 -18 -13 -36 -13
-14 -21 -29 -19 -33 3 -4 -2 -11 -11 -14 -25 -10 -12 -40 18 -41 15 -1 25 2
23 6 -6 9 15 6 33 -4 7 -5 12 -3 12 4 0 8 4 8 15 -1 9 -7 18 -10 22 -6 3 3 0
6 -7 6 -7 0 -10 3 -7 6 4 4 13 1 22 -6 11 -9 15 -9 15 -1 0 7 5 9 13 4 6 -4
74 -8 149 -8 75 0 131 3 125 7 -16 11 24 5 41 -5 7 -5 12 -3 12 4 0 8 4 8 15
-1 11 -9 19 -10 28 -1 10 8 17 7 25 -1 9 -9 12 -9 12 2 0 11 3 11 12 2 7 -7
17 -12 23 -12 5 0 3 5 -5 10 -9 6 -10 10 -3 10 6 0 15 -4 18 -10 3 -5 11 -10
16 -10 6 0 7 5 4 10 -3 6 1 10 10 10 9 0 14 -3 12 -7 -3 -5 57 -8 133 -8 76 0
136 3 134 7 -5 8 17 5 34 -5 7 -5 12 -3 12 4 0 8 4 8 15 -1 11 -9 19 -10 28
-1 10 8 17 7 25 -1 9 -9 12 -9 12 1 0 11 3 11 15 1 9 -7 18 -10 22 -6 3 3 0 6
-7 6 -7 0 -10 3 -7 6 4 4 13 1 22 -6 11 -9 15 -9 15 -1 0 7 5 9 13 4 6 -4 74
-8 149 -8 75 0 131 3 125 7 -16 11 24 5 41 -5 7 -5 12 -3 12 4 0 8 4 8 15 -1
11 -9 19 -10 28 -1 10 8 17 7 25 -1 9 -9 12 -9 12 2 0 11 3 11 12 2 7 -7 17
-12 23 -12 5 0 3 5 -5 10 -9 6 -10 10 -3 10 6 0 15 -5 18 -10 3 -6 11 -10 16
-10 6 0 7 5 4 10 -3 6 1 10 10 10 9 0 14 -3 12 -7 -3 -5 57 -8 133 -8 76 0
136 3 134 7 -5 8 17 5 34 -5 7 -5 12 -3 12 4 0 8 4 8 15 -1 11 -9 19 -10 28
-1 10 8 17 7 25 -1 9 -9 12 -9 12 1 0 11 3 11 15 1 9 -7 18 -10 22 -6 3 3 0 6
-7 6 -7 0 -10 3 -7 6 4 4 13 1 22 -6 11 -9 15 -9 15 -1 0 7 5 9 13 4 6 -4 74
-8 149 -8 75 0 131 3 125 7 -16 11 24 5 41 -5 7 -5 12 -3 12 4 0 8 4 8 15 -1
11 -9 19 -10 28 -1 10 8 17 7 25 -1 9 -9 12 -9 12 1 0 11 3 11 15 1 12 -10 19
-10 27 -2 8 8 15 9 25 1 10 -9 13 -8 13 1 0 10 3 10 15 0 11 -9 19 -10 28 -1
10 8 17 7 25 -1 9 -9 12 -9 12 1 0 11 3 11 15 1 9 -7 18 -10 22 -6 3 3 0 6 -7
6 -7 0 -10 3 -7 6 4 4 13 1 22 -6 11 -9 15 -9 15 -1 0 7 5 9 13 4 6 -4 74 -8
149 -8 75 0 131 3 125 7 -16 11 24 5 41 -5 7 -5 12 -3 12 4 0 8 4 8 15 -1 11
-9 19 -10 28 -1 10 8 17 7 25 -1 9 -9 12 -9 12 1 0 10 3 11 13 3 15 -12 58
-12 51 0 -3 4 2 8 11 8 9 0 14 -3 11 -8 -2 -4 15 -8 38 -8 36 0 42 3 40 21 -1
11 -6 19 -12 18 -6 -2 -9 4 -6 12 4 8 1 15 -6 15 -6 0 -8 5 -5 10 3 6 1 10 -4
10 -6 0 -11 9 -11 19 0 11 -9 23 -21 26 -17 6 -18 9 -8 16 11 6 10 9 -4 15
-10 4 -16 12 -14 18 3 7 -6 23 -20 36 -13 12 -22 29 -19 36 3 7 1 16 -5 19 -5
4 -7 11 -4 16 3 5 -2 6 -11 2 -12 -4 -15 -3 -10 5 4 7 1 15 -8 18 -9 3 -16 15
-16 26 0 10 -5 16 -10 13 -6 -4 -10 -3 -9 2 1 4 1 19 0 33 -1 20 -3 22 -11 10
-8 -12 -10 -9 -10 11 0 15 -7 32 -15 39 -8 7 -12 16 -9 21 3 5 -2 9 -11 9 -11
0 -15 5 -12 14 3 8 -1 17 -9 20 -8 3 -14 15 -14 26 0 11 -7 23 -15 26 -8 4
-15 15 -15 26 0 12 -4 16 -11 12 -8 -5 -10 1 -7 19 4 18 1 24 -9 20 -12 -5
-19 15 -14 41 1 5 -5 4 -13 -3 -12 -10 -14 -9 -9 8 3 12 1 21 -5 21 -8 0 -33
46 -35 67 0 4 -9 17 -19 27 -10 11 -18 26 -18 33 0 8 -5 11 -11 8 -6 -4 -10
-1 -8 6 1 8 1 21 0 29 -1 13 -2 13 -11 0 -8 -12 -10 -9 -10 13 0 16 -4 26 -10
22 -6 -3 -10 5 -10 18 0 14 -7 28 -16 31 -10 4 -14 13 -10 28 3 13 3 18 0 11
-4 -10 -8 -10 -19 0 -7 7 -11 15 -8 20 2 4 -3 14 -11 22 -8 9 -13 22 -9 31 3
9 0 14 -8 12 -8 -2 -15 7 -17 20 -2 12 -8 20 -13 17 -5 -4 -9 1 -9 9 0 9 -4
16 -10 16 -5 0 -10 9 -10 20 0 11 -4 20 -10 20 -5 0 -10 9 -10 20 0 11 -4 20
-10 20 -5 0 -10 9 -10 20 0 12 -7 20 -17 20 -9 0 -13 3 -10 7 4 3 -3 21 -14
40 -11 18 -17 33 -13 33 4 0 -3 12 -17 28 -14 15 -31 41 -39 57 -8 17 -22 36
-30 43 -13 12 -13 13 0 6 12 -7 13 -5 3 8 -7 8 -9 19 -5 23 4 5 -1 5 -11 2
-15 -6 -18 -2 -15 16 2 13 -2 21 -9 20 -8 -2 -13 7 -13 22 0 14 -7 28 -15 31
-8 4 -13 10 -10 14 3 4 -2 11 -11 14 -9 4 -14 13 -10 21 3 9 -1 18 -9 21 -8 4
-15 15 -15 26 0 10 -4 16 -10 13 -5 -3 -10 3 -10 14 0 12 -5 21 -11 21 -5 0
-7 5 -4 10 3 6 1 10 -5 10 -7 0 -10 7 -7 14 4 10 1 13 -9 9 -9 -3 -14 1 -14
13 0 10 -10 29 -22 43 -13 14 -16 21 -8 16 13 -8 13 -7 0 5 -9 9 -15 21 -12
28 2 6 -5 12 -15 12 -15 0 -16 2 -3 10 13 8 13 10 -2 10 -12 0 -16 6 -13 20 2
11 0 18 -6 15 -5 -4 -9 3 -9 14 0 12 -4 21 -10 21 -5 0 -10 5 -10 11 0 6 -10
20 -22 31 -13 11 -16 17 -8 13 10 -4 9 -2 -2 8 -10 8 -15 17 -11 20 3 4 1 7
-6 7 -7 0 -9 5 -6 10 3 6 1 10 -5 10 -6 0 -9 4 -6 9 3 4 -2 17 -10 27 -9 10
-12 13 -8 5 5 -9 3 -12 -5 -7 -6 4 -9 11 -6 16 8 13 -6 41 -18 33 -5 -3 -7 -1
-3 5 3 6 -1 17 -9 25 -8 9 -15 23 -15 31 0 9 -4 16 -9 16 -9 0 -35 59 -32 73
1 5 -3 6 -9 2 -5 -3 -12 1 -15 9 -3 9 -8 24 -12 34 -3 9 -5 21 -4 26 1 5 -5 6
-13 3 -11 -4 -13 -1 -9 10 4 11 2 14 -5 9 -8 -4 -12 -1 -12 10 0 10 -10 29
-22 42 -13 14 -17 22 -10 18 6 -4 12 -3 12 2 0 6 -7 13 -16 16 -9 4 -14 13
-10 21 3 8 0 14 -7 12 -7 -1 -11 4 -9 11 1 6 -3 12 -9 12 -5 0 -7 5 -4 10 3 6
1 10 -4 10 -6 0 -11 9 -11 21 0 11 -4 17 -10 14 -10 -6 -13 3 -13 38 0 14 -2
15 -15 5 -10 -9 -13 -9 -9 -1 4 6 1 18 -7 26 -8 8 -13 17 -10 19 2 3 -2 11
-11 18 -8 7 -15 21 -15 31 0 11 -4 19 -10 19 -5 0 -10 9 -10 20 0 12 -7 20
-16 20 -10 0 -14 6 -10 15 3 8 1 15 -5 15 -6 0 -7 5 -4 10 3 6 2 10 -3 10 -5
0 -15 -11 -22 -25z m-1623 -2837 c-3 -8 -6 -5 -6 6 -1 11 2 17 5 13 3 -3 4
-12 1 -19z m247 4 c3 -5 -1 -9 -9 -9 -8 0 -12 4 -9 9 3 4 7 8 9 8 2 0 6 -4 9
-8z m960 0 c3 -5 -1 -9 -9 -9 -8 0 -12 4 -9 9 3 4 7 8 9 8 2 0 6 -4 9 -8z
m960 0 c3 -5 -1 -9 -9 -9 -8 0 -12 4 -9 9 3 4 7 8 9 8 2 0 6 -4 9 -8z m640 0
c3 -5 -1 -9 -9 -9 -8 0 -12 4 -9 9 3 4 7 8 9 8 2 0 6 -4 9 -8z"/>
</g>
</svg>
